<svg xmlns="http://www.w3.org/2000/svg" version="1.1" xmlns:xlink="http://www.w3.org/1999/xlink" width="512" height="512"><svg id="SvgjsSvg1001" xmlns="http://www.w3.org/2000/svg" version="1.1" viewBox="0 0 512 512">
  <!-- Generator: Adobe Illustrator 29.8.2, SVG Export Plug-In . SVG Version: 2.1.1 Build 3)  -->
  <defs>
    <style>
      .st0 {
        fill: #cf2b2f;
      }

      .st1 {
        fill: none;
        stroke: #e06e77;
        stroke-miterlimit: 10;
        stroke-width: 9px;
      }

      .st2 {
        fill: #e06e77;
      }
    </style>
  </defs>
  <polygon class="st2" points="129.14 42.83 129.14 84.86 52.78 84.86 52.78 427.14 129.14 427.14 129.14 469.17 12.7 469.17 12.7 42.83 129.14 42.83"></polygon>
  <polygon class="st2" points="500.74 42.83 500.74 469.17 384.3 469.17 384.3 427.14 460.66 427.14 460.66 84.86 384.3 84.86 384.3 42.83 500.74 42.83"></polygon>
  <path class="st2" d="M384.3,121.01v269.98H126.83V121.01h257.47ZM372.92,132.94h-234.71v246.12h234.71v-246.12h0Z"></path>
  <rect class="st0" x="138.2" y="132.94" width="234.71" height="246.12"></rect>
  <line class="st1" x1="138.2" y1="214.98" x2="372.92" y2="214.98"></line>
  <line class="st1" x1="138.2" y1="295.19" x2="372.92" y2="295.19"></line>
</svg><style>@media (prefers-color-scheme: light) { :root { filter: none; } }
@media (prefers-color-scheme: dark) { :root { filter: none; } }
</style></svg>